<svg xmlns="http://www.w3.org/2000/svg" xmlns:xlink="http://www.w3.org/1999/xlink" width="138.072" height="261.197" viewBox="0 0 138.072 261.197"><defs><linearGradient id="a" x1="0.5" x2="0.5" y2="1" gradientUnits="objectBoundingBox"><stop offset="0" stop-color="#207ee2"/><stop offset="1" stop-color="#1d3f70"/></linearGradient></defs><path d="M63.718-1135.316v64.708l.941,2.8.918,2.824,3.72.046,3.72.069-2.847,2.043a25.632,25.632,0,0,0-2.939,2.342,17.5,17.5,0,0,0,.964,3.536c.6,1.791,1.033,3.284,1.01,3.329a27.207,27.207,0,0,1-2.893-1.975,27.156,27.156,0,0,0-3.054-2.044,27.155,27.155,0,0,0-3.054,2.044,27.2,27.2,0,0,1-2.893,1.975c-.023-.046.413-1.538,1.01-3.329a17.5,17.5,0,0,0,.964-3.536,25.631,25.631,0,0,0-2.939-2.342l-2.847-2.043,3.72-.069,3.72-.046.918-2.824.941-2.8v-64.708c0-64.524,0-64.684.459-64.684S63.718-1199.839,63.718-1135.316Z" transform="translate(65.054 1200)" fill="url(#a)"/><path d="M129.1-1131.228c0,61.769.046,68.772.344,68.772a5.634,5.634,0,0,1,2.687,1.538,5.052,5.052,0,0,1,1.332,3.513,4.991,4.991,0,0,1-1.516,3.7l-.8.827,1.332,1.24a40,40,0,0,0,6.292,4.432,12.63,12.63,0,0,1,5.924,7.509,12.4,12.4,0,0,1,.253,2.434v1.447h.689c1.194,0,1.607.666,1.607,2.641v1.722h.689c.666,0,.689.046.689,1.033v1.01l-1.424.069-1.424.069.941.62a4.353,4.353,0,0,1,1.424,1.607c.482,1.01.482,1.194.482,16.648v15.614l-.528,1.01a4.992,4.992,0,0,1-1.286,1.516l-.735.505,1.217.069,1.217.069v1.033c0,.964-.046,1.033-.62,1.1-.643.069-.643.092-.643,1.676,0,1.4-.069,1.676-.574,2.159a1.891,1.891,0,0,1-1.148.574c-.551,0-.574.069-.574,1.309a10.814,10.814,0,0,1-2.847,7.118,23.281,23.281,0,0,1-5.488,4c-3.33,1.929-6.728,5.4-7.738,7.876l-.528,1.332-.482-1.125a11.468,11.468,0,0,0-3.1-4.432,34.2,34.2,0,0,0-6.774-4.96,13.246,13.246,0,0,1-5.121-5.167,11.341,11.341,0,0,1-1.171-5.029c.069-.758.023-.8-.85-1.033-1.148-.3-1.493-.919-1.493-2.8,0-1.378-.023-1.424-.643-1.492-.551-.069-.62-.184-.689-.964-.092-1.056.161-1.286,1.47-1.286h.941l-.964-.987a4.579,4.579,0,0,1-1.24-1.929c-.184-.689-.253-5.442-.207-16.3.069-14.994.069-15.362.528-16.143a7.454,7.454,0,0,1,1.447-1.538l.964-.735-1.424-.069-1.447-.069v-.919c0-.826.069-.918.6-.987.6-.069.62-.138.712-1.768.092-1.975.505-2.641,1.676-2.641.735,0,.758,0,.643-1.01a11.466,11.466,0,0,1,1.424-5.786,14.591,14.591,0,0,1,4.914-4.684,39.263,39.263,0,0,0,6.223-4.432l1.171-1.079-.9-1.033a5.18,5.18,0,0,1,2.71-8.611l1.148-.275v-68.634c0-60.85.046-68.634.344-68.634S129.1-1192.216,129.1-1131.228Zm-1.791,69.828a4.837,4.837,0,0,0-2.71,2.181c-.781,1.515-.138,4.271,1.217,5.143.505.344.528.3,1.217-.849a14.669,14.669,0,0,0,.941-2l.276-.8.827,1.7c1.033,2.09,1.4,2.365,2.181,1.63a4.313,4.313,0,0,0,1.194-3.513C132.058-1060.39,130.038-1061.767,127.305-1061.4Zm14.879,28.473v1.033l.964-.069c.987-.069.987-.069,1.056-1.056l.069-.964h-2.09Zm-5.97-.023v1.033h2.067v-2.067h-2.067Zm-5.97,0v1.033h2.067v-2.067h-2.067Zm-5.924-.069c.069.988.069.988,1.033,1.056l.987.069v-2.09h-2.09Zm-5.97,0,.069.988h2.067l.069-.988.069-.964h-2.342Zm-5.786.092v1.033l.964-.069c.987-.069.987-.069,1.056-1.056l.069-.964h-2.09Zm28.473,22.365v11.481h4.822v-22.962h-4.822Zm-7.578,0v11.481h4.822v-22.962h-4.822Zm-7.578,0v11.481H130.7v-22.962h-4.822Zm-7.578,0v11.481h4.822v-22.962H118.3Zm-7.578,0v11.481h4.822v-22.962h-4.822Zm31.458,22.618v1.033h2.067v-2.067h-2.067Zm-5.97,0v1.033h2.067v-2.067h-2.067Zm-5.97,0v1.033h2.067v-2.067h-2.067Zm-5.97,0v1.033h2.067v-2.067h-2.067Zm-5.97,0v1.033h2.3v-2.067h-2.3Zm-5.741,0v1.033h2.067v-2.067h-2.067Z" transform="translate(-23.057 1200)" fill="url(#a)"/><path d="M219.1-1147.141l-.023,52.882.987,3.146.964,3.169,3.743.046,3.743.069-2.985,2.159c-1.63,1.194-2.985,2.181-2.985,2.181,0,.023.505,1.607,1.125,3.513a13.19,13.19,0,0,1,.85,3.352c-.138-.069-1.447-1.01-2.893-2.067s-2.71-1.929-2.8-1.975a28,28,0,0,0-2.87,1.929c-1.493,1.079-2.824,2.044-2.962,2.112a13.191,13.191,0,0,1,.85-3.352c.62-1.906,1.125-3.49,1.125-3.513,0,0-1.355-.987-2.985-2.181L209-1087.83l3.743-.069,3.743-.046.964-3.169.987-3.146-.023-52.882c0-46.843.046-52.859.344-52.859S219.1-1193.984,219.1-1147.141Z" transform="translate(-126.152 1200)" fill="url(#a)"/><path d="M271.718-1077.91V-955.8l.941,2.8.919,2.824,3.72.046,3.72.069-2.847,2.044a25.6,25.6,0,0,0-2.939,2.342,17.49,17.49,0,0,0,.964,3.536c.6,1.791,1.033,3.283,1.01,3.329a27.164,27.164,0,0,1-2.893-1.975,27.149,27.149,0,0,0-3.054-2.044,27.165,27.165,0,0,0-3.054,2.044,27.158,27.158,0,0,1-2.893,1.975c-.023-.046.413-1.538,1.01-3.329a17.5,17.5,0,0,0,.964-3.536,25.616,25.616,0,0,0-2.939-2.342l-2.847-2.044,3.72-.069,3.72-.046.918-2.824.941-2.8V-1077.91c0-121.93,0-122.09.459-122.09S271.718-1199.839,271.718-1077.91Z" transform="translate(-190.708 1200)" fill="url(#a)"/><path d="M341.171-1164.018l.069,35.959.781.276a6.208,6.208,0,0,1,3.008,2.641,6.591,6.591,0,0,1,.138,4.455,6.513,6.513,0,0,1-1.148,1.584l-.8.827,1.194,1.079a29.336,29.336,0,0,0,5.3,3.835c4.822,2.733,6.958,5.718,7.21,10.081l.092,2.021h.666c1.171,0,1.584.689,1.584,2.641v1.722h.689c.666,0,.689.046.689,1.033v1.01l-1.4.069-1.424.069.9.574a4.344,4.344,0,0,1,1.4,1.607l.528,1.01v31.274l-.528,1.01a4.507,4.507,0,0,1-1.263,1.538l-.758.505,1.217.069,1.217.069.069,1.079c.069,1.079.069,1.1-.62,1.1h-.712v1.722c0,1.975-.413,2.641-1.607,2.641h-.689v1.469c0,4.088-2.411,7.555-7.118,10.241-4.156,2.388-7.486,5.511-8.749,8.266l-.735,1.584-.873-1.791c-1.4-2.893-4.179-5.442-8.909-8.22-4.57-2.686-6.912-6.246-6.912-10.54,0-.918-.046-1.01-.574-1.01a1.892,1.892,0,0,1-1.148-.574c-.505-.482-.574-.758-.574-2.159,0-1.584,0-1.607-.643-1.676-.574-.069-.62-.138-.62-1.1v-1.033l1.24-.069,1.24-.069-.8-.551a4.355,4.355,0,0,1-1.24-1.424c-.413-.827-.436-1.7-.505-16.464L320-1091.251l.574-1.148a4.569,4.569,0,0,1,1.424-1.745l.85-.574-1.424-.069-1.424-.069v-1.01c0-.987.023-1.033.666-1.033h.666l.092-1.86c.092-2.067.367-2.5,1.653-2.5.712,0,.712-.023.62-1.056-.3-3.972,2.3-8.129,6.682-10.677a30.13,30.13,0,0,0,5.695-4.018l1.4-1.309-.8-.827a5.208,5.208,0,0,1,2.893-8.84l.873-.161v-35.913c0-31.757.046-35.936.344-35.936S341.125-1195.8,341.171-1164.018Zm-2.457,37.474a3.806,3.806,0,0,0-2.411,3.72,4.05,4.05,0,0,0,1.217,2.939c.781.712,1.056.482,2.067-1.63l.758-1.584.9,1.768a7.232,7.232,0,0,0,1.217,1.883c.459.138,1.561-1.217,1.883-2.365a3.78,3.78,0,0,0-1.125-3.858,2.827,2.827,0,0,0-1.883-1.079C339.793-1127,339.7-1127,338.714-1126.544Zm15.5,28.175v1.033l.964-.069c.987-.069.987-.069,1.056-1.056l.069-.964h-2.09Zm-5.97,0v1.033l.964-.069c.987-.069.987-.069,1.056-1.056l.069-.964h-2.09Zm-5.924-.092c.069.987.069.987,1.033,1.056l.987.069v-2.09h-2.09Zm-5.97,0c.069.987.069.987,1.033,1.056l.987.069v-2.09h-2.09Zm-5.97,0,.069.987h2.067l.069-.987.069-.964H330.31Zm-5.786.092v1.033l.964-.069c.987-.069.987-.069,1.056-1.056l.069-.964h-2.09ZM353.066-1076v11.481h4.822v-22.962h-4.822Zm-7.578,0v11.481h4.822v-22.962h-4.822Zm-7.578,0v11.481h4.822v-22.962h-4.822Zm-7.578,0v11.481h4.822v-22.962h-4.822Zm-7.578,0v11.481h4.822v-22.962h-4.822Zm31.458,22.641v1.033l.964-.069c.987-.069.987-.069,1.056-1.056l.069-.964h-2.09Zm-5.97-.023v1.033h2.067v-2.067h-2.067Zm-5.97,0v1.033h2.067v-2.067h-2.067Zm-5.924-.069c.069.987.069.987,1.033,1.056l.987.069v-2.089h-2.09Zm-5.97,0,.069.987h2.067l.069-.987.069-.964H330.31Zm-5.786.092v1.033l.964-.069c.987-.069.987-.069,1.056-1.056l.069-.964h-2.09Z" transform="translate(-283.766 1200)" fill="url(#a)"/><path d="M435.972-1172.974v27.049l.964,2.985.987,2.985,3.743.115,3.743.115-2.847,2.044c-1.539,1.125-2.893,2.113-2.985,2.2a14.937,14.937,0,0,0,.964,3.559,32.879,32.879,0,0,1,1.056,3.513,27.322,27.322,0,0,1-2.962-2c-1.584-1.148-2.939-2.09-3.031-2.09s-1.447.942-3.031,2.09a27.322,27.322,0,0,1-2.962,2,32.858,32.858,0,0,1,1.056-3.513,14.936,14.936,0,0,0,.964-3.559c-.092-.092-1.447-1.079-2.985-2.2l-2.847-2.044,3.743-.115,3.743-.115.987-2.985.964-2.985v-27.049c.023-23.858.069-27.026.367-27.026S435.949-1196.832,435.972-1172.974Z" transform="translate(-392.826 1200)" fill="url(#a)"/><path d="M507.487-1100.987v99.013l.964,2.939.964,2.939,3.72.046,3.72.069-2.87,2.067c-1.584,1.125-2.916,2.135-2.962,2.227a21,21,0,0,0,.964,3.513,33.2,33.2,0,0,1,.964,3.444,21.16,21.16,0,0,1-2.916-1.952,33.249,33.249,0,0,0-3.008-2.067,33.222,33.222,0,0,0-3.008,2.067,21.163,21.163,0,0,1-2.916,1.952,33.163,33.163,0,0,1,.964-3.444,21,21,0,0,0,.964-3.513c-.046-.092-1.378-1.1-2.962-2.227l-2.87-2.067,3.72-.069,3.72-.046.964-2.939.964-2.939v-99.013c0-98.852,0-99.013.459-99.013S507.487-1199.839,507.487-1100.987Z" transform="translate(-480.667 1200)" fill="url(#a)"/><path d="M579.487-1146.8v53.2l.964,2.939.964,2.939,3.72.046,3.72.069-2.87,2.067c-1.584,1.125-2.916,2.135-2.962,2.227a21,21,0,0,0,.964,3.513,33.182,33.182,0,0,1,.964,3.444,21.188,21.188,0,0,1-2.916-1.952,33.233,33.233,0,0,0-3.008-2.067,33.262,33.262,0,0,0-3.008,2.067,21.2,21.2,0,0,1-2.916,1.952,33.136,33.136,0,0,1,.964-3.444,21,21,0,0,0,.964-3.513c-.046-.092-1.378-1.1-2.962-2.227l-2.87-2.067,3.72-.069,3.72-.046.964-2.939.965-2.939v-53.2c0-53.043,0-53.2.459-53.2S579.487-1199.839,579.487-1146.8Z" transform="translate(-569.2 1200)" fill="url(#a)"/></svg>