<svg xmlns="http://www.w3.org/2000/svg" width="94.166" height="94.379" viewBox="0 0 94.166 94.379"><path d="M53.449,6.288l36.26,19.884a21.12,21.12,0,0,1,3.742,34.41,23.762,23.762,0,0,1-6.078,3.862V93.469a7.2,7.2,0,0,1-7.2,7.2H26.994a7.206,7.206,0,0,1-7.2-7.2V64.363A24.226,24.226,0,0,1,13.8,60.57a21.063,21.063,0,0,1,3.6-34.4ZM26.994,97.667H80.175a4.2,4.2,0,0,0,4.2-4.2V62.415l.956-.372a20.776,20.776,0,0,0,6.148-3.721A18.12,18.12,0,0,0,88.266,28.8L53.454,9.712,18.849,28.8a18.063,18.063,0,0,0-3.087,29.5,21.238,21.238,0,0,0,6.084,3.672l.95.374V93.469A4.2,4.2,0,0,0,26.994,97.667ZM53.349,31.191l.694,2.834a15.594,15.594,0,1,0,21,21l2.834.7A24.274,24.274,0,0,1,53.589,79.775h-.121a24.292,24.292,0,0,1-.119-48.584Zm7.832,35.3a18.69,18.69,0,0,1-2.938-.234A18.607,18.607,0,0,1,47.823,34.944a21.3,21.3,0,0,0,5.646,41.831h.116A21.385,21.385,0,0,0,74.066,61.293a18.6,18.6,0,0,1-12.885,5.193Zm5.3-30s0,0,0,.007a6.1,6.1,0,0,0,6.1,6.092v3a6.1,6.1,0,0,0-6.1,6.1h-3a6.1,6.1,0,0,0-6.1-6.1h0v-3h0a6.087,6.087,0,0,0,6.1-6.1h3Zm1.1,7.6a9.173,9.173,0,0,1-2.593-2.59,9.194,9.194,0,0,1-2.6,2.6,9.174,9.174,0,0,1,2.59,2.593A9.174,9.174,0,0,1,67.578,44.087Z" transform="translate(-6.499 -6.288)" fill="#1d457a"/></svg>