<svg xmlns="http://www.w3.org/2000/svg" width="121.01" height="94.73" viewBox="0 0 121.01 94.73"><g transform="translate(0.468 -270.752)"><g transform="matrix(0.259, -0.966, 0.966, 0.259, 68.365, 356.847)"><path d="M13.242.136,1.5,1.577A1.7,1.7,0,0,0,1.909,4.96L13.66,3.52a14.684,14.684,0,0,1,8.972,1.759l10.279,5.773a1.7,1.7,0,0,0,.836.217H45.988a3.139,3.139,0,0,1,3.2,3.079l.02,1.3a3.018,3.018,0,0,1-3.084,3.039H27.473a1.7,1.7,0,1,0,0,3.4H46.127a6.47,6.47,0,0,0,6.486-6.484L52.6,14.3a6.592,6.592,0,0,0-6.611-6.437h-11.8L24.3,2.312A18.087,18.087,0,0,0,13.242.135Z" transform="translate(0 0)" fill="#1d457a" fill-rule="evenodd"/><path d="M72.712.443a6.363,6.363,0,0,0-4.748.034L50.842,6.655A1.7,1.7,0,0,0,52,9.86l17.169-6.2c.022-.01.044-.022.066-.034a3.048,3.048,0,0,1,3.926,1.546h.007l.013.034a3.28,3.28,0,0,1-1.532,4.432L47.858,20.463C41.845,23.2,35.135,23.385,28.4,22.295L1.975,18.015a1.7,1.7,0,0,0-.544,3.365l26.426,4.28c7.146,1.157,14.579,1.012,21.406-2.1l23.8-10.83A6.708,6.708,0,0,0,76.24,3.708l.066.153a1.754,1.754,0,0,0-.073-.187A6.56,6.56,0,0,0,72.712.429Z" transform="translate(0 7.065)" fill="#1d457a" fill-rule="evenodd"/></g><g transform="matrix(-0.259, -0.966, 0.966, -0.259, 19.456, 365.483)"><path d="M13.242,21.958,1.5,20.517a1.7,1.7,0,0,1,.411-3.384l11.751,1.44a14.684,14.684,0,0,0,8.972-1.759l10.279-5.773a1.7,1.7,0,0,1,.836-.217H45.988a3.139,3.139,0,0,0,3.2-3.079l.02-1.3a3.018,3.018,0,0,0-3.084-3.039H27.473a1.7,1.7,0,1,1,0-3.4H46.127a6.47,6.47,0,0,1,6.486,6.484L52.6,7.791a6.592,6.592,0,0,1-6.611,6.437h-11.8L24.3,19.782a18.087,18.087,0,0,1-11.055,2.177Z" transform="translate(0 11.297)" fill="#1d457a" fill-rule="evenodd"/><path d="M72.712,25.882a6.363,6.363,0,0,1-4.748-.034L50.842,19.67A1.7,1.7,0,0,1,52,16.465l17.169,6.2c.022.01.044.022.066.034a3.048,3.048,0,0,0,3.926-1.546h.007l.013-.034a3.28,3.28,0,0,0-1.532-4.432L47.858,5.862C41.845,3.124,35.135,2.94,28.4,4.03L1.975,8.31a1.7,1.7,0,0,1-.544-3.365L27.857.666C35-.491,42.437-.346,49.264,2.762l23.8,10.83a6.708,6.708,0,0,1,3.176,9.024l.066-.153a1.754,1.754,0,0,1-.073.187A6.56,6.56,0,0,1,72.712,25.9Z" transform="translate(0 0)" fill="#1d457a" fill-rule="evenodd"/></g><path d="M24.037,270.753a1.537,1.537,0,0,0-1.423,1.081l-4.262,13.74L4.12,285.431a1.537,1.537,0,0,0-.918,2.785l11.615,8.35-4.544,13.668a1.537,1.537,0,0,0,2.383,1.711l11.429-8.566,11.423,8.566a1.537,1.537,0,0,0,2.383-1.711l-4.544-13.668,11.621-8.35a1.537,1.537,0,0,0-.918-2.785l-14.232.143L25.55,271.828a1.538,1.538,0,0,0-1.513-1.074Z" transform="translate(35.952 0)" fill="#f68c11"/></g></svg>