<svg xmlns="http://www.w3.org/2000/svg" xmlns:xlink="http://www.w3.org/1999/xlink" width="232.147" height="181.73" viewBox="0 0 232.147 181.73"><defs><linearGradient id="a" x1="0.5" x2="0.5" y2="1" gradientUnits="objectBoundingBox"><stop offset="0" stop-color="#dbd067"/><stop offset="1" stop-color="#fa9a42"/></linearGradient></defs><g transform="translate(0.468 -270.752)"><g transform="matrix(0.259, -0.966, 0.966, 0.259, 131.581, 435.916)"><path d="M25.4.261,2.874,3.024a3.27,3.27,0,0,0,.789,6.492L26.205,6.753a28.169,28.169,0,0,1,17.212,3.374L63.136,21.2a3.263,3.263,0,0,0,1.6.416H88.223a6.022,6.022,0,0,1,6.145,5.907l.038,2.5a5.791,5.791,0,0,1-5.916,5.831H52.7a3.267,3.267,0,1,0,0,6.53H88.491a12.413,12.413,0,0,0,12.442-12.438l-.025-2.507A12.645,12.645,0,0,0,88.224,15.09H65.592L46.611,4.435A34.7,34.7,0,0,0,25.4.259Z" transform="translate(0 0)" fill="#fff" fill-rule="evenodd"/><path d="M139.491.85a12.206,12.206,0,0,0-9.109.064L97.535,12.767a3.27,3.27,0,0,0,2.226,6.149L132.7,7.012c.043-.02.085-.043.127-.065a5.848,5.848,0,0,1,7.531,2.966h.013c.008.022.017.045.025.066a6.293,6.293,0,0,1-2.939,8.5L91.81,39.257C80.276,44.509,67.4,44.862,54.485,42.77L3.789,34.56a3.269,3.269,0,0,0-1.043,6.454l50.7,8.21c13.708,2.22,27.969,1.942,41.065-4.021l45.658-20.777a12.869,12.869,0,0,0,6.094-17.312l.127.293a3.362,3.362,0,0,0-.14-.358A12.585,12.585,0,0,0,139.491.824Z" transform="translate(0.001 13.554)" fill="#fff" fill-rule="evenodd"/></g><g transform="matrix(-0.259, -0.966, 0.966, -0.259, 37.754, 452.483)"><path d="M25.4,42.123,2.874,39.36a3.27,3.27,0,0,1,.789-6.492l22.543,2.763a28.169,28.169,0,0,0,17.212-3.374L63.136,21.183a3.263,3.263,0,0,1,1.6-.416H88.223a6.022,6.022,0,0,0,6.145-5.907l.038-2.5a5.791,5.791,0,0,0-5.916-5.831H52.7A3.267,3.267,0,1,1,52.7,0H88.491a12.413,12.413,0,0,1,12.442,12.438l-.025,2.507A12.645,12.645,0,0,1,88.224,27.295H65.592L46.611,37.949A34.7,34.7,0,0,1,25.4,42.126Z" transform="translate(0 21.672)" fill="#fff" fill-rule="evenodd"/><path d="M139.491,49.652a12.206,12.206,0,0,1-9.109-.064L97.535,37.735a3.27,3.27,0,0,1,2.226-6.149L132.7,43.49c.043.02.085.043.127.065a5.848,5.848,0,0,0,7.531-2.966h.013c.008-.022.017-.045.025-.066a6.293,6.293,0,0,0-2.939-8.5L91.81,11.245C80.276,5.993,67.4,5.64,54.485,7.732l-50.7,8.211A3.269,3.269,0,0,1,2.746,9.488l50.7-8.21C67.15-.943,81.411-.664,94.507,5.3l45.658,20.777a12.869,12.869,0,0,1,6.094,17.312l.127-.293a3.362,3.362,0,0,1-.14.358,12.585,12.585,0,0,1-6.755,6.224Z" transform="translate(0.001 0)" fill="#fff" fill-rule="evenodd"/></g><path d="M43.76,270.754a2.949,2.949,0,0,0-2.729,2.073l-8.176,26.359-27.3-.274a2.949,2.949,0,0,0-1.762,5.343l22.283,16.019-8.717,26.221a2.949,2.949,0,0,0,4.572,3.282l21.926-16.433,21.914,16.433a2.949,2.949,0,0,0,4.572-3.282L61.62,320.273l22.294-16.019a2.949,2.949,0,0,0-1.762-5.343l-27.3.274-8.188-26.371a2.95,2.95,0,0,0-2.9-2.061Z" transform="translate(71.753 0)" fill="url(#a)"/></g></svg>